<svg id="Camada_1" data-name="Camada 1" xmlns="http://www.w3.org/2000/svg" xmlns:xlink="http://www.w3.org/1999/xlink" viewBox="0 0 324.55 294.55"><defs><style>.cls-1{fill:none;stroke:#5f2d17;stroke-miterlimit:10;}.cls-2{fill:#362f36;}.cls-3{fill:#9d9d9d;}.cls-4{fill:#62398b;}.cls-5{fill:#edecec;}.cls-6{fill:#2075ab;}.cls-7{fill:#c7c7c5;}.cls-8{fill:#b3b3b3;}.cls-9{fill:#ccc;}.cls-10{fill:#a4212d;}.cls-11{fill:#c12937;}.cls-12{fill:#ececec;}.cls-13{fill:#d0d0cf;}.cls-14{fill:url(#Gradiente_sem_nome_265);}.cls-15{fill:#f18b30;}</style><linearGradient id="Gradiente_sem_nome_265" x1="30.93" y1="112.18" x2="122.95" y2="112.18" gradientUnits="userSpaceOnUse"><stop offset="0.1" stop-color="#dbdbda"/><stop offset="0.15" stop-color="#e7e7e6"/><stop offset="0.23" stop-color="#f4f4f4"/><stop offset="0.33" stop-color="#fdfdfc"/><stop offset="0.51" stop-color="#fff"/><stop offset="0.67" stop-color="#fdfdfc"/><stop offset="0.77" stop-color="#f4f4f4"/><stop offset="0.85" stop-color="#e7e7e6"/><stop offset="0.9" stop-color="#dbdbda"/></linearGradient></defs><title>cozinha-roupa</title><path class="cls-1" d="M245.9,133.13" transform="translate(-10.77 -2.73)"/><path class="cls-2" d="M266.07,297.27h-.43c-4.65-.28-7.17-1-8.44-2.56a4.08,4.08,0,0,1-.87-3.21c.17-2.69,2.8-4.38,7-4.47,3.18,0,7.5,1,11.65,2.08,2.12.2,3.25-.52,3.4-1.34s-.92-2.32-3.31-3a31.16,31.16,0,0,0-11.27-1.39c-5.78.43-12.65,1.22-20.38,2.35-6.45,1.16-12.14,2-17.37,2.43-6.35,1-11.21.14-13.28-2.32A3.94,3.94,0,0,1,212,282a5,5,0,0,1,3.06-3c3-1.14,7-1.39,11.78-.74,1.55.13,3.32.34,5.22.57A135.66,135.66,0,0,0,247.31,280c3.82-.14,5-.89,5.43-1.32a.93.93,0,0,0,.24-.75c-.24-2.27-3.33-4-7.87-4.31a66.38,66.38,0,0,0-9.34.37,52.62,52.62,0,0,1-9.86.25c-4.1-.16-6.26-2.54-6.39-7.08l1.58,0c.1,3.7,1.62,5.42,4.92,5.55a51.75,51.75,0,0,0,9.61-.26,67.89,67.89,0,0,1,9.58-.37c5.44.41,9,2.61,9.34,5.75a2.53,2.53,0,0,1-.64,1.94c-1,1.12-3.14,1.72-6.58,1.84a133.18,133.18,0,0,1-15.41-1.19c-1.89-.23-3.64-.43-5.21-.57-4.56-.62-8.26-.4-11.05.65a3.37,3.37,0,0,0-2.12,2,2.35,2.35,0,0,0,.46,2.4c1.68,2,6.12,2.67,11.88,1.77,5.23-.47,10.88-1.26,17.31-2.42,7.79-1.14,14.7-1.93,20.54-2.37a33.11,33.11,0,0,1,11.82,1.46c3.44.92,4.71,3.11,4.41,4.76-.26,1.41-1.8,2.94-5.23,2.6-4.17-1.05-8.38-2.05-11.36-2.05-3.3.07-5.35,1.2-5.47,3a2.6,2.6,0,0,0,.5,2.05c1,1.12,3.27,1.76,7.29,2a34.37,34.37,0,0,0,10.59-1.33c6.33-1.9,12.31-3.86,17.8-5.82,3.81-1.27,7.5-2.33,11.3-3.23a16.79,16.79,0,0,1,5.5-.3l-.26,1.56a15.53,15.53,0,0,0-4.91.28c-3.72.89-7.37,1.93-11.12,3.18-5.49,2-11.5,3.94-17.85,5.84A36.54,36.54,0,0,1,266.07,297.27Z" transform="translate(-10.77 -2.73)"/><path class="cls-3" d="M218.29,262v4.87a3.7,3.7,0,0,0,4.23,0v-5.43c-2-2.69-3.56-3.08-4.42.65" transform="translate(-10.77 -2.73)"/><path class="cls-4" d="M218.1,262.06a9,9,0,0,1,5.11-.57,3.91,3.91,0,0,0,3.76-3.56c2.33-10.28,3.27-22.11,3.25-35a118.27,118.27,0,0,0-3.93-28.41c-4.12-11.63-9.09-21.53-15-29.48a94,94,0,0,0-7.38-9.71,54.6,54.6,0,0,0-15-11.94c-8.35-4.56-17.65-8.8-23-9.08-1.11-.13-1.79,1-2,3.48l.06,97.48a25.71,25.71,0,0,0,2.49,8.87,56.49,56.49,0,0,1,6,18,51.83,51.83,0,0,0,1.73,10.26,1.73,1.73,0,0,0,1.69,1.16A94.56,94.56,0,0,0,199.42,270C207.44,267.75,211.1,265.47,218.1,262.06Z" transform="translate(-10.77 -2.73)"/><path class="cls-5" d="M173.35,136.09c-1.07,8.16,1.82,15,6.81,20.7a53.2,53.2,0,0,0,11.73,9c6.56,3.72,12.79,9.47,18.84,16.33a62.5,62.5,0,0,1,10.6,20.24c2.66,10.07,3,19.42,2.64,28.56a30.28,30.28,0,0,1-6.52,18c-4.16,4.21-8.17,6.9-15.27,9.6-6.75,2.07-10.68,5.91-10.11,13.21l-13.47,1.67a142,142,0,0,0-2-23.67l-5.06-29.2a316.15,316.15,0,0,1-2.65-33.24L168.23,154a102.29,102.29,0,0,1,1.46-19C171,135.33,172.21,135.64,173.35,136.09Z" transform="translate(-10.77 -2.73)"/><path class="cls-6" d="M205.11,208.62c-.36-2.17-.77-4.08-1.14-5.88a9,9,0,0,1,3-7.6,6.88,6.88,0,0,1,8.19-.53,9,9,0,0,1,3.77,5.42,85.88,85.88,0,0,1,2,12.41c1,8.21.39,17.1-1.21,26.38-.65,4.27-1.89,8.18-6.7,9.74-3.5.67-7-1.17-8.55-5.39a9.94,9.94,0,0,1,0-6c.28-1.5.57-3,.82-4.65Z" transform="translate(-10.77 -2.73)"/><polygon class="cls-7" points="153.11 135.04 150.2 135.04 150.19 231.87 153.17 231.87 153.11 135.04"/><path class="cls-8" d="M161,137.76c0-1.25-.24-2.72-1.33-2.81-1.14.07-1.57,1.11-1.51,2.82v97.85c.13,1.21.68,1.69,1.18,1.83.9.17,1.69-.67,1.71-1.75Z" transform="translate(-10.77 -2.73)"/><path class="cls-9" d="M204,156.37c-2,.66-1.56,3.86-1,5.55.87,2.21,2.15,3.58,3.37,4a.85.85,0,0,0,1.06-1L205,157.61C204.87,156.63,204.71,156.23,204,156.37Z" transform="translate(-10.77 -2.73)"/><path class="cls-10" d="M213.78,169.06c-1.87.46-2.59,2.09-2,5,.52,2.7,2.36,5.07,5.09,7.49l5.42-.38c.85-.87.75-3.45.4-4.85-.81-2.58-2.62-6.08-4.15-7.27Z" transform="translate(-10.77 -2.73)"/><path class="cls-11" d="M218.51,169.06h-.61c-1.78,1.09-1.8,2.92-1.16,5,1.39,3.54,4.2,7.3,5.52,7.08.69-.91.85-2.49.4-4.85A18.09,18.09,0,0,0,218.51,169.06Z" transform="translate(-10.77 -2.73)"/><ellipse class="cls-12" cx="196.72" cy="217.87" rx="3.54" ry="11.91"/><path class="cls-13" d="M206.87,208.69h-3.12c-5.33,4.7-3.65,22.47.21,23.82h2.93C202.87,227.82,202.65,213.54,206.87,208.69Z" transform="translate(-10.77 -2.73)"/><polygon class="cls-8" points="196.71 208.38 197.18 207.76 198.22 207.76 197.89 208.38 196.71 208.38"/><polygon class="cls-13" points="196.72 218.89 196.71 208.38 197.89 208.38 201.4 218.89 196.72 218.89"/><polygon class="cls-8" points="201.81 218.24 201.4 218.89 197.92 208.46 198.22 207.76 201.81 218.24"/><path class="cls-2" d="M310.26,288l.81-4.15,2.86.6a6.29,6.29,0,0,1,4.4-3.13,6.65,6.65,0,0,1,2.74.18l8.05,1.64-.57,2.63L334,287a1.7,1.7,0,0,1,1.28,1.84,1.47,1.47,0,0,1-1.76,1L328,288.65l-.51,2.65,5.2,1.08c1.05.28,1.6.87,1.55,1.82a1.53,1.53,0,0,1-1.83,1.05l-5.54-1.11-.28,1.58-8-1.61a6.3,6.3,0,0,1-3.09-1.28,6,6,0,0,1-2.35-4.31Z" transform="translate(-10.77 -2.73)"/><path class="cls-14" d="M31,77.1c-.74,42.53,4.24,60.46,11.67,67.89,3.65,4.75,52,7.12,68,0,11-14.23,10.41-33.92,12.24-70.11C91.69,78.22,61.07,80.26,31,77.1Z" transform="translate(-10.77 -2.73)"/><path class="cls-15" d="M43.76,112.16,72.8,135l65.09-82.84c2.18-2.5,8-2.7,6.93,7.92-1.59,9.45-8.42,13.72-14.23,14.19l-1.81-1.61c8.09-2.2,11.86-6.88,12.71-12.72,1.24-7.67-.47-6.25-2.62-3.37l-63.6,80.9c-5,6.72-12.72,8.3-20.22,5.41-7.35-2.52-14.61-9.49-15.27-19.39A17.21,17.21,0,0,1,43.76,112.16Z" transform="translate(-10.77 -2.73)"/><path class="cls-15" d="M28.39,93.75l.33,10.39c-9.18-2.82-16.34-6.56-17.79-8.92-.44-.62-.07-4.72,2.51-5.21C16,89.72,20.75,91.64,28.39,93.75Z" transform="translate(-10.77 -2.73)"/><path class="cls-15" d="M124.49,93.75l-.33,10.39c9.18-2.82,16.34-6.56,17.79-8.92.44-.62.07-4.72-2.51-5.21C136.85,89.72,132.13,91.64,124.49,93.75Z" transform="translate(-10.77 -2.73)"/><path class="cls-15" d="M29,73.07c.13-.78.29-1.21,1.89-1.25,2,.15,4.83-.42,8.58-1.92l9.71-4.41a53.8,53.8,0,0,1,14.52-4.2,19.18,19.18,0,0,1,3.88-10.67c2.67-3,5.6-4.42,8.79-4.49a13.44,13.44,0,0,1,9.46,5.2,15.7,15.7,0,0,1,3.45,7,73.45,73.45,0,0,1,13.13.92c3.47.37,8.11,1.76,12.78,2.71a28.93,28.93,0,0,0,9.78.24c1.23.07,1.66,1.72-.17,2.21-2.49,4-91.44,12.53-94.69,10A1.24,1.24,0,0,1,29,73.07Z" transform="translate(-10.77 -2.73)"/><path class="cls-6" d="M69.43,60.34c.14-6.81,2.41-10.31,6.69-10.71,4.15-.16,6.27,3.71,7.65,9.29A119.77,119.77,0,0,0,69.43,60.34Z" transform="translate(-10.77 -2.73)"/><path class="cls-15" d="M126,6.57c-10.38,6.12-16.15,16.87-3.69,23.06,7,2.95,8.18,5.77,5.76,9.18-4.66,6.76-6.15,8.72-2.07,13.45-1.27-6.13,1.22-7,4.06-10.32,4.06-3.17,5.69-6.93,2.42-11.88-1.81-2.09-4.88-3.89-8.54-5.55C118.07,20.56,120.18,14.36,126,6.57Z" transform="translate(-10.77 -2.73)"/><path class="cls-15" d="M144.69,30.19c-6.29-3.62-9.82-10-2.35-13.84,4.18-1.82,4.89-3.51,3.42-5.55-2.85-4-3.77-5.21-1.33-8.07-.73,3.69.77,4.22,2.51,6.17,2.46,1.89,3.46,4.14,1.53,7.13a15.22,15.22,0,0,1-5.12,3.39C139.84,21.83,141.15,25.54,144.69,30.19Z" transform="translate(-10.77 -2.73)"/></svg>