<svg id="Camada_1" data-name="Camada 1" xmlns="http://www.w3.org/2000/svg" viewBox="0 0 229.54 301.4"><defs><style>.cls-1{fill:#dba79c;}.cls-2{fill:#1f1d17;}.cls-3{fill:#5d9b63;}.cls-4{fill:#131212;}.cls-5{fill:#682e60;}.cls-6{fill:#4cae74;}.cls-7{fill:#edd76f;}.cls-8{fill:#ea9e41;}.cls-9{fill:#f0efbb;}.cls-10{fill:#8e4a8c;}.cls-11{fill:#d7e7b7;}.cls-12{fill:#ebd5bd;}.cls-13{fill:#e6b8d3;}.cls-14{fill:#f6f5f5;}.cls-15{fill:#f4da15;}.cls-16{fill:#f0eeea;}.cls-17{fill:#83cadd;}.cls-18{fill:#329f2c;}.cls-19{fill:#a4c6c5;}.cls-20{fill:#fff;}.cls-21{fill:#c68d27;}.cls-22{fill:#c3e45c;}.cls-23{fill:#4e53a3;}.cls-24{fill:#ccdad8;}.cls-25{fill:#617cb8;}.cls-26{fill:none;stroke:#000;stroke-miterlimit:10;}.cls-27{fill:#dab5a7;}</style></defs><title>header</title><path class="cls-1" d="M215.73,269.9c10.4,2.31,14.1-2.89,12.86-13.65l-13.81-1.74Z" transform="translate(-5.83 -8.42)"/><path class="cls-2" d="M153.25,11c12.2-5,42.79,20,35.56,55.46l-4.4,55.15-95.9-6.12a736.32,736.32,0,0,0,20.23-77.36C114.21,19.91,140.6,1.5,153.25,11Z" transform="translate(-5.83 -8.42)"/><rect class="cls-1" x="73.75" y="252.49" width="111" height="19.66"/><path class="cls-3" d="M78,262.47c-2.37,21.75-11.77,25.27-11.13,47.35H202.36c-5.79-17.49-6.85-20.89-8.25-40.68C161.73,283.84,128.87,298.16,78,262.47Z" transform="translate(-5.83 -8.42)"/><path class="cls-1" d="M157.7,107.55c-1.2-6,.36-11.7,1.62-16.71-9.81-9.27-17.1-6.2-21.7,9.52-3.56-8.14-8.22-13.91-15.87-13.33-1.66,7.19-3.88,13.89-7.4,19.42l-5.61,24.69c15.81,26.36,33.67,33.33,54.66,10.41Z" transform="translate(-5.83 -8.42)"/><path class="cls-4" d="M127.27,128.08a108.09,108.09,0,0,0,16.78,1.16c3.63,4.33-.25,10-6.43,16.17C133.3,139.55,125.27,133,127.27,128.08Z" transform="translate(-5.83 -8.42)"/><path class="cls-5" d="M67.89,140c19.11,40.46,0,116.32,8.48,120.88,9.85,12,62.92,7.71,108,6.38l22.4-109.75c-6.28,29.14-17.23,67.49-13.29,76.52l.27,15.14,24.44,8.57c7.71,1.22,13.59,1.14,17.14-.63-10.71-47.57-6.67-98-16.19-111.73l-59.86-40.93-21.7,40.93-24.44-40.93C92.8,108.23,57,128.65,55.34,127l-3.09,92.38,16.82,5.16C80.34,199.66,78.38,171.05,67.89,140Z" transform="translate(-5.83 -8.42)"/><path class="cls-6" d="M102.17,175.67l2.46,81.79c8.9,8.16,39.52,13.43,72.91,10.79l23.33-76.85Z" transform="translate(-5.83 -8.42)"/><path class="cls-7" d="M19.33,95.41C15.39,85,13.68,77.11,15,72.54c.8-2.89,4.6-3.84,6.39-1.43,3,4,1.16,12.63,6,16.45.65-10.79,2.83-18.5,6.77-22.69a3.39,3.39,0,0,1,5.78,1.61c1.24,5.87-2.76,16.79-1,24.77,9-6.22,18.95-6,23.46.89a2.3,2.3,0,0,1-1.68,3.58C56.55,96.06,49,94.36,45,97.08c1.14,4.8,3,8.47,5.83,10.47,3.8-2.14,6.14-5.83,7.38-10.71.31-6.06.49-12.28,6.19-11.72,2.5.3,3.34,3.87,3.35,9.09a52.22,52.22,0,0,1-4.22,20.35c-4.15,9.81-8.43,20.27-7.22,31.67l11.54,43.92c-8.81,5-29.75,6.54-35.58.83L32,133.56A47.24,47.24,0,0,1,30,120.4c-11.75-11.32-24.27-22-24.21-31A3,3,0,0,1,10,86.52C13.4,88,15.84,93,19.33,95.41Z" transform="translate(-5.83 -8.42)"/><path class="cls-1" d="M35.5,192.93,35,213c-2.38,11.19,27.25,16.31,28.8-2.61l-4.32-17.18A46.4,46.4,0,0,1,35.5,192.93Z" transform="translate(-5.83 -8.42)"/><path class="cls-5" d="M35,211c-4.1,7.68-7,15.32-6.72,21.3,4.65,9.05,5.72,17.14,21,18.33,12.27,7.64,21,2,18.61-12.49C86.72,235,88,205.72,67.2,197.75a9.76,9.76,0,0,0-6.77-.6l3.32,13.22C62.32,228.58,32.39,224.71,35,211Z" transform="translate(-5.83 -8.42)"/><path class="cls-7" d="M147.18,220.61l16.54-3.37c7.91,3,16.77,8.43,27.38,17.52,3.76-1.79,5.94-.06,7.38,3.34L209,239.52c20.55,5.24,14.43,33.49,5.47,36.9-9.94.34-23.64-4.36-37.61-5.48-9.32,5.29-15.35,5.28-19.28,1.91-15.47-2.54-40.13-3.89-37.84-10.24,3.28-4.79,20.68-1.17,33.8-4.52-5.24-2.7-37.37,1.59-37.37-11.26,5-6.9,18.52,1.16,36.65,0-14.36-5.08-34.51-6.83-32.84-15.4,2.77-6,25.94,4.29,47.36,4A96.63,96.63,0,0,1,147.18,220.61Z" transform="translate(-5.83 -8.42)"/><path class="cls-8" d="M165.32,215.72c7.89-1.5,35.58-2,45.73-7.88a1.54,1.54,0,0,0-.41-2.83c-8.38-2-29.14-2.6-37.87,1C172.68,204.05,169.34,209.35,165.32,215.72Z" transform="translate(-5.83 -8.42)"/><path class="cls-9" d="M164,216.65l.9-1.43c5.82-9.22,6.85-10.57,7.91-10.29a.87.87,0,0,1,.35.19c9.42-3.45,29.86-2.59,37.68-.76a2.21,2.21,0,0,1,.6,4c-7.39,4.31-23.52,5.74-35.3,6.79-4.52.4-8.43.75-10.64,1.17Zm8.19-10a96.94,96.94,0,0,0-5.48,8.14c2.33-.33,5.62-.62,9.31-1,11.66-1,27.62-2.45,34.75-6.62a.86.86,0,0,0,.43-.89.85.85,0,0,0-.67-.72c-8.81-2.07-29.11-2.48-37.46.92l-.87.36Z" transform="translate(-5.83 -8.42)"/><path class="cls-10" d="M126.14,216.16c-.12,2.11.13,5,0,8.37,24.89-5.71,41.55-4.52,42.11-13.81C162.42,203,144.92,209.61,126.14,216.16Z" transform="translate(-5.83 -8.42)"/><path class="cls-11" d="M125.44,225.37l0-.87c.08-1.8,0-3.47,0-4.94,0-1.31-.06-2.44,0-3.43l0-.45,3.36-1.17c18.3-6.41,34.1-11.94,39.92-4.18l.14.19v.24c-.43,7.05-8.85,8.42-22.81,10.69-5.82,1-12.42,2-19.82,3.72Zm1.34-8.73c0,.84,0,1.8,0,2.89,0,1.26.06,2.65,0,4.16,7.11-1.59,13.45-2.63,19.07-3.54C159,218,167,216.71,167.57,210.93c-5.39-6.69-21.37-1.09-38.27,4.82Z" transform="translate(-5.83 -8.42)"/><path class="cls-12" d="M176.81,171.92c9.85.42,18,2.64,24.52,6.31,5.32,8.88,8.6,18.74,11.07,29-2.66-6.34-33-3.81-40.28-1.43C174.53,191.36,176.07,180.13,176.81,171.92Z" transform="translate(-5.83 -8.42)"/><path class="cls-13" d="M110,195.45c2.11,16.49,1.4,25.59,17.5,20.27,19.65-7.27,35.17-12.42,40.71-5,2.89.67,5.76-9.62,8.56-40.7-17.45-3.82-44.51-6.19-51-2.9-3,.85-3.71,5-3.88,10C124.55,183.71,120,188.77,110,195.45Z" transform="translate(-5.83 -8.42)"/><path class="cls-14" d="M196,175.67c-1-5.35-.41-18.23,0-30.26-4.14-5.08-10.09-4.79-14.43,1.28,0,5-.61,14.28-1.43,25.23A70.58,70.58,0,0,1,196,175.67Z" transform="translate(-5.83 -8.42)"/><path class="cls-15" d="M196,145c.18-4-.41-7.31-3-9.05a4.68,4.68,0,0,0-5.06-.08c-2.9,1.83-4.84,5.89-6.41,10.79C186.05,141,190.84,140.08,196,145Z" transform="translate(-5.83 -8.42)"/><path class="cls-16" d="M96,160.14a69.21,69.21,0,0,1,0-9.88c6-.54,12.68,5.84,20,11.82-4,1-8.28,1.5-12.07,2.77A28.25,28.25,0,0,0,96,160.14Z" transform="translate(-5.83 -8.42)"/><path class="cls-17" d="M96,160.14a32.61,32.61,0,0,0-4.81-1,.88.88,0,0,0-.63,1.55,55.91,55.91,0,0,0,8.61,5.44c.9-.3,2.63-.69,4.73-1.3A28.85,28.85,0,0,0,96,160.14Z" transform="translate(-5.83 -8.42)"/><path class="cls-18" d="M117.7,164.54l-1.58-21.66c6.12-2.57,12.21-2.59,16.42,0l-1.19,21.66Z" transform="translate(-5.83 -8.42)"/><path class="cls-19" d="M94,171c-1.6,11.07-12.36,26.1-11.62,44.74,16.32-13.25,28.35-19.95,36.56-27.21a9.61,9.61,0,0,0,3.17-8.21c-.88-8.05.23-14.09,7.53-13.85h2.62c-.58-1.83-2-3.47-7.26-4.26a35.31,35.31,0,0,0-13.77.76c-4.66,1.17-9.12,2.33-13.24,3.53A5.56,5.56,0,0,0,94,171Z" transform="translate(-5.83 -8.42)"/><path class="cls-20" d="M120.19,141.55V137q3.69-3.58,9.18,0l-.83,4.3A18.39,18.39,0,0,0,120.19,141.55Z" transform="translate(-5.83 -8.42)"/><path class="cls-21" d="M165.45,119.89a15.48,15.48,0,0,1,1.09-6.14c1-2.07,5.33-2,6.3,0,.77,1.67.66,4,.33,6.49-.17,1.36-2,2.32-4,2.06l-1.08-.15C166.54,122,165.41,121,165.45,119.89Z" transform="translate(-5.83 -8.42)"/><path class="cls-22" d="M155.1,152.06c.25-10.27.91-19.85,3.26-26.6,3.13-9,16-8.82,18.87.22,2.33,7.22,2,17.35,1,28.12a10,10,0,0,1-11.88,8.92l-3.22-.64A10,10,0,0,1,155.1,152.06Z" transform="translate(-5.83 -8.42)"/><path class="cls-23" d="M163.4,167.63c3.53-7.74,9.17-14.45,14.53-22.22-.05-3.95,1-6.08,2.9-6.79a2.63,2.63,0,0,1,3.56,2.12,7.61,7.61,0,0,1-2.81,5.95c-.13,7.11-.66,15.71-1.43,25.23C175.26,172.14,170,170.55,163.4,167.63Z" transform="translate(-5.83 -8.42)"/><path class="cls-24" d="M131,165.89c0-6.82,0-12.49,0-15.86,15.87-8,26.5-6.11,36,9.83l-3.58,7.77C152.28,165.89,141.55,165.81,131,165.89Z" transform="translate(-5.83 -8.42)"/><path class="cls-25" d="M140.6,146.29c6.62-2,12.81-.31,18.28,3.44.68-3.93.78-7.38-1.19-9.54L159.2,130c-3.57-3.57-11.66-4.2-15.15-.79l-.48,9.6a13.9,13.9,0,0,0-3,7.45" transform="translate(-5.83 -8.42)"/><path class="cls-26" d="M137.62,145.41" transform="translate(-5.83 -8.42)"/><path class="cls-5" d="M110,260.91c-7.3,9.78-11.65,18.16-13,25.11,10.65,14.21,26.31,20.26,43.52,23.8l-.48-6.34c-1.33-10.91-2.21-22-2.5-33.39Z" transform="translate(-5.83 -8.42)"/><path class="cls-5" d="M169.44,297.13c-2.28-8.53-4.06-16.62-6-22-7.72-5.49-16.1-8.11-25.78-5.06-.28,11.38,1.87,22.49,2.5,33.39C157.2,307.25,167.24,305.35,169.44,297.13Z" transform="translate(-5.83 -8.42)"/><path class="cls-27" d="M136.31,21.16c-20.69,6.92-25.35,28.08-23.53,55,2.36,11.29,10,18.59,21.55,23C145,103.56,165.44,89.81,170.66,80c9.91-17.64,3.62-50.16-19.22-58.78A22.64,22.64,0,0,0,136.31,21.16Z" transform="translate(-5.83 -8.42)"/></svg>