<svg id="Camada_1" data-name="Camada 1" xmlns="http://www.w3.org/2000/svg" viewBox="0 0 173.58 227.92"><defs><style>.cls-1{fill:#1f1d17;}.cls-2{fill:#df9f90;}.cls-3{fill:#495059;}.cls-4{fill:#131212;}.cls-5{fill:#7d5075;}.cls-6{fill:#78a3c3;}.cls-7{fill:#f3d85d;}.cls-8{fill:#e0b19c;}.cls-9{fill:#ebd141;stroke:#f0efbb;}.cls-10,.cls-24,.cls-9{stroke-miterlimit:10;}.cls-10{fill:#4f8e23;stroke:#d7e7b7;}.cls-11{fill:#f0efbb;}.cls-12{fill:#d7eab8;}.cls-13{fill:#f6f5f5;}.cls-14{fill:#f4da15;}.cls-15{fill:#f0eeea;}.cls-16{fill:#83cadd;}.cls-17{fill:#ef8217;}.cls-18{fill:#bfdbdb;}.cls-19{fill:#fff;}.cls-20{fill:#c93628;}.cls-21{fill:#eb5aa3;}.cls-22{fill:#a4cec1;}.cls-23{fill:#62afc9;}.cls-24{fill:none;stroke:#000;}</style></defs><title>header</title><path class="cls-1" d="M113.38,12.57c9.22-3.78,32.36,15.12,26.89,41.94l-3.33,41.71L64.42,91.59a558.35,558.35,0,0,0,15.3-58.5C83.86,19.29,103.81,5.37,113.38,12.57Z" transform="translate(-1.9 -10.61)"/><rect class="cls-2" x="55.77" y="190.93" width="83.94" height="14.87"/><path class="cls-3" d="M56.47,202.72c-1.79,16.45-8.9,19.11-8.42,35.81H150.52c-4.39-13.23-5.18-15.8-6.24-30.76C119.79,218.88,94.94,229.71,56.47,202.72Z" transform="translate(-1.9 -10.61)"/><path class="cls-2" d="M116.74,85.57c-.91-4.53.27-8.85,1.23-12.64-7.43-7-12.93-4.69-16.41,7.2-2.7-6.15-6.22-10.52-12-10.08A47.11,47.11,0,0,1,84,84.73l-4.24,18.68c12,19.93,25.46,25.2,41.33,7.87Z" transform="translate(-1.9 -10.61)"/><path class="cls-4" d="M93.73,101.1a82.37,82.37,0,0,0,12.69.87c2.74,3.28-.19,7.59-4.86,12.23C98.29,109.77,92.22,104.79,93.73,101.1Z" transform="translate(-1.9 -10.61)"/><path class="cls-5" d="M48.83,110.13c14.45,30.6,0,88,6.41,91.41,7.45,9.11,47.58,5.83,81.7,4.83l16.94-83c-4.75,22-13,51-10,57.87l.21,11.45,18.48,6.48c5.83.92,10.27.86,13-.48-8.1-36-5-74.09-12.24-84.49L118,83.25l-16.41,31L83.08,83.25c-15.42,2.83-42.51,18.28-43.75,17L37,170.13,49.72,174C58.24,155.22,56.76,133.59,48.83,110.13Z" transform="translate(-1.9 -10.61)"/><path class="cls-6" d="M74.75,137.08l1.86,61.85c6.73,6.17,29.89,10.16,55.14,8.16L149.39,149Z" transform="translate(-1.9 -10.61)"/><path class="cls-7" d="M12.11,76.39c-3-7.87-4.28-13.84-3.32-17.29A2.78,2.78,0,0,1,13.63,58c2.28,3.05.87,9.55,4.51,12.44.49-8.16,2.14-14,5.12-17.16a2.56,2.56,0,0,1,4.37,1.22c.93,4.44-2.09,12.7-.76,18.73,6.79-4.7,14.32-4.51,17.73.67a1.74,1.74,0,0,1-1.27,2.71c-3.08.26-8.82-1-11.78,1,.86,3.63,2.24,6.4,4.41,7.92,2.87-1.62,4.64-4.41,5.58-8.1.23-4.59.37-9.29,4.68-8.87,1.89.23,2.52,2.93,2.53,6.88a39.38,39.38,0,0,1-3.19,15.39c-3.14,7.41-6.38,15.33-5.46,23.95L48.83,148c-6.66,3.78-22.5,4.95-26.91.63l-.27-43.42a35.36,35.36,0,0,1-1.44-9.95C11.32,86.73,1.85,78.67,1.9,71.84A2.29,2.29,0,0,1,5,69.67C7.62,70.79,9.47,74.55,12.11,76.39Z" transform="translate(-1.9 -10.61)"/><path class="cls-8" d="M24.33,150.13l-.41,15.17c-1.8,8.46,20.61,12.33,21.78-2l-3.27-13A35.11,35.11,0,0,1,24.33,150.13Z" transform="translate(-1.9 -10.61)"/><path class="cls-5" d="M24,163.77c-3.11,5.81-5.32,11.58-5.08,16.11,3.51,6.84,4.32,13,15.87,13.86,9.28,5.78,15.9,1.53,14.08-9.45,14.24-2.34,15.23-24.48-.52-30.51a7.35,7.35,0,0,0-5.13-.45l2.52,10C44.62,177.09,22,174.16,24,163.77Z" transform="translate(-1.9 -10.61)"/><path class="cls-7" d="M108.78,171.06l12.52-2.54c6,2.25,12.67,6.37,20.7,13.25,2.84-1.35,4.49-.05,5.58,2.52l7.92,1.08c15.54,4,10.91,25.32,4.14,27.9-7.53.25-17.88-3.3-28.44-4.14-7.06,4-11.61,4-14.58,1.44-11.7-1.92-30.36-2.94-28.62-7.74,2.48-3.62,15.63-.89,25.56-3.42-4-2-28.26,1.2-28.26-8.52,3.77-5.21,14,.88,27.72,0-10.86-3.84-26.1-5.16-24.84-11.64,2.1-4.56,19.62,3.24,35.82,3.06A72.54,72.54,0,0,1,108.78,171.06Z" transform="translate(-1.9 -10.61)"/><path class="cls-9" d="M122.51,167.37c6-1.14,26.9-1.48,34.58-6a1.17,1.17,0,0,0-.32-2.14c-6.33-1.49-22-2-28.63.72C128.07,158.54,125.55,162.55,122.51,167.37Z" transform="translate(-1.9 -10.61)"/><path class="cls-10" d="M92.87,167.7c-.08,1.59.11,3.76,0,6.33,18.83-4.32,31.43-3.42,31.85-10.44C120.31,157.71,107.08,162.75,92.87,167.7Z" transform="translate(-1.9 -10.61)"/><path class="cls-11" d="M131.2,134.25c7.44.32,13.63,2,18.54,4.77,4,6.71,6.49,14.17,8.37,21.92-2-4.79-24.93-2.88-30.46-1.08C129.46,149,130.64,140.45,131.2,134.25Z" transform="translate(-1.9 -10.61)"/><path class="cls-12" d="M80.7,152c1.6,12.47,1.06,19.35,13.24,15.33,14.85-5.5,26.59-9.4,30.78-3.78,2.19.5,4.35-7.28,6.48-30.78-13.2-2.89-33.66-4.68-38.59-2.19-2.24.64-2.81,3.78-2.93,7.59C91.67,143.16,88.27,147,80.7,152Z" transform="translate(-1.9 -10.61)"/><path class="cls-13" d="M145.71,137.08c-.75-4-.31-13.79,0-22.88-3.13-3.85-7.63-3.62-10.91,1,0,3.77-.46,10.8-1.08,19.08A52.72,52.72,0,0,1,145.71,137.08Z" transform="translate(-1.9 -10.61)"/><path class="cls-14" d="M145.71,113.91c.14-3-.31-5.53-2.24-6.84a3.52,3.52,0,0,0-3.82-.06c-2.2,1.38-3.66,4.45-4.85,8.16C138.18,110.88,141.8,110.17,145.71,113.91Z" transform="translate(-1.9 -10.61)"/><path class="cls-15" d="M70.09,125.34a50.26,50.26,0,0,1,0-7.47c4.55-.42,9.58,4.41,15.1,8.94-3.06.72-6.27,1.13-9.13,2.09A21.53,21.53,0,0,0,70.09,125.34Z" transform="translate(-1.9 -10.61)"/><path class="cls-16" d="M70.09,125.34a23.74,23.74,0,0,0-3.64-.74.67.67,0,0,0-.48,1.17,42.52,42.52,0,0,0,6.51,4.11c.68-.22,2-.52,3.58-1A21.87,21.87,0,0,0,70.09,125.34Z" transform="translate(-1.9 -10.61)"/><path class="cls-17" d="M86.49,128.67,85.3,112.29c4.63-2,9.23-2,12.42,0l-.9,16.38Z" transform="translate(-1.9 -10.61)"/><path class="cls-18" d="M68.6,133.53c-1.21,8.37-9.35,19.74-8.79,33.84,12.35-10,21.45-15.09,27.65-20.58a7.28,7.28,0,0,0,2.4-6.2c-.67-6.1.17-10.67,5.7-10.48h2c-.45-1.38-1.52-2.62-5.5-3.22a26.3,26.3,0,0,0-10.41.58c-3.52.88-6.9,1.75-10,2.66A4.23,4.23,0,0,0,68.6,133.53Z" transform="translate(-1.9 -10.61)"/><path class="cls-19" d="M88.37,111.28v-3.43q2.8-2.71,6.95,0l-.63,3.25A13.83,13.83,0,0,0,88.37,111.28Z" transform="translate(-1.9 -10.61)"/><path class="cls-20" d="M122.6,94.9a11.79,11.79,0,0,1,.82-4.64c.79-1.57,4-1.54,4.77,0a9.36,9.36,0,0,1,.25,4.91c-.13,1-1.53,1.76-3,1.56l-.81-.12C123.43,96.48,122.57,95.74,122.6,94.9Z" transform="translate(-1.9 -10.61)"/><path class="cls-7" d="M114.78,119.22c.18-7.76.68-15,2.46-20.11a7.54,7.54,0,0,1,14.27.17c1.76,5.46,1.49,13.12.76,21.27a7.56,7.56,0,0,1-9,6.74l-2.44-.49A7.54,7.54,0,0,1,114.78,119.22Z" transform="translate(-1.9 -10.61)"/><path class="cls-21" d="M121.05,131c2.67-5.85,6.94-10.93,11-16.8,0-3,.76-4.6,2.19-5.14a2,2,0,0,1,2.69,1.61,5.78,5.78,0,0,1-2.12,4.5c-.1,5.37-.5,11.88-1.08,19.08C130,134.41,126,133.21,121.05,131Z" transform="translate(-1.9 -10.61)"/><path class="cls-22" d="M96.52,129.69c0-5.16,0-9.45,0-12,12-6.06,20-4.62,27.24,7.44L121.05,131C112.64,129.68,104.52,129.63,96.52,129.69Z" transform="translate(-1.9 -10.61)"/><path class="cls-23" d="M103.81,114.86c5-1.49,9.69-.23,13.82,2.61.51-3,.59-5.59-.89-7.22l1.14-7.68c-2.7-2.7-8.82-3.18-11.46-.6l-.36,7.26a10.41,10.41,0,0,0-2.25,5.63" transform="translate(-1.9 -10.61)"/><path class="cls-24" d="M101.56,114.2" transform="translate(-1.9 -10.61)"/><path class="cls-5" d="M80.7,201.54c-5.52,7.39-8.81,13.74-9.8,19,8,10.75,19.9,15.32,32.91,18l-.36-4.8c-1-8.25-1.67-16.64-1.89-25.25Z" transform="translate(-1.9 -10.61)"/><path class="cls-5" d="M125.61,228.93c-1.72-6.45-3.06-12.57-4.56-16.62-5.84-4.15-12.18-6.13-19.49-3.83-.22,8.61,1.41,17,1.89,25.25C116.36,236.58,124,235.15,125.61,228.93Z" transform="translate(-1.9 -10.61)"/><path class="cls-8" d="M100.57,20.24C84.92,25.48,81.4,41.48,82.77,61.82c1.79,8.54,7.6,14.06,16.3,17.42,8.05,3.31,23.52-7.08,27.47-14.47C134,51.43,129.28,26.83,112,20.31A17.11,17.11,0,0,0,100.57,20.24Z" transform="translate(-1.9 -10.61)"/></svg>