<svg id="Camada_1" data-name="Camada 1" xmlns="http://www.w3.org/2000/svg" viewBox="0 0 195.83 266.46"><defs><style>.cls-1{fill:#362e34;}.cls-2{fill:#565655;}.cls-3{fill:#393838;}.cls-4{fill:#484848;}.cls-5{fill:#3a3a3a;}.cls-6{fill:#3e353d;}.cls-7{fill:#c6c5c4;}.cls-8{fill:#3f363e;}.cls-9{fill:#362e36;}.cls-10{fill:#382f37;}.cls-11{fill:#2b272d;}.cls-12{fill:#3d373d;}.cls-13{fill:#443d45;}.cls-14{fill:#3c333b;}.cls-15{fill:#362f34;}.cls-16{fill:#2b2429;}.cls-17{fill:#a8a7a8;}.cls-18{fill:#34a660;}.cls-19{fill:#228f42;}.cls-20{fill:#aaaaab;}.cls-21{fill:#1b683d;}.cls-22{fill:#218c52;}.cls-23{fill:#136e37;}.cls-24{fill:#747274;}.cls-25{fill:#908e90;}.cls-26{fill:#373737;}</style></defs><title>limpeza</title><path class="cls-1" d="M68.2,139.49c-44,9.45-40.6,36.56-49.35,97.8-1.16,30.52,16,48,49.35,45.75-5.55-2.1-24.7.91-24.15-59.47C47.33,184.84,35.26,146.12,68.2,139.49Z" transform="translate(-1.67 -16.77)"/><ellipse class="cls-2" cx="21.5" cy="241.31" rx="12.6" ry="20.63"/><ellipse class="cls-3" cx="21.44" cy="241.32" rx="9.25" ry="15.88"/><ellipse class="cls-4" cx="23.57" cy="241.29" rx="7.12" ry="15"/><ellipse class="cls-5" cx="20.72" cy="241.42" rx="6.79" ry="9.95"/><path class="cls-6" d="M52.85,144V133.6c3.47-4.31,19.16-5.17,21.92,0V140Q65.91,148.25,52.85,144Z" transform="translate(-1.67 -16.77)"/><path class="cls-7" d="M44.05,223.57c30,19.49,55.64,23,71.15-11.42-8.27-42.14-18.37-62.71-40.43-72.07C50.86,134.38,46.13,170.2,44.05,223.57Z" transform="translate(-1.67 -16.77)"/><path class="cls-8" d="M141.19,279.4a3.3,3.3,0,0,0,2.6,2.4c11.33,1.94,16.86,1.44,19.32-.34l31.25-20.74c3.54-1.9,4.42-5.17.74-10.79a10.87,10.87,0,0,0-9.63-4.88c-17.48.93-31.67,8.06-42.11,22.27a14,14,0,0,0-2.2,11.95Z" transform="translate(-1.67 -16.77)"/><path class="cls-9" d="M141.13,273.65c2.88,2.56,15.94,4.46,21.13,1.12l34.45-21.91c1.65,3.55.67,6.1-2.35,7.86L162.25,282c-1.47,1.28-4.71,2-19.68-.64C140.91,279,140.12,276.54,141.13,273.65Z" transform="translate(-1.67 -16.77)"/><path class="cls-10" d="M155.83,253.24c1.9,2.16,13.24,6.43,16.6,5.58,3.55-3.88,1.51-10.71-4.2-11.95l-.72-9.58H154.38Z" transform="translate(-1.67 -16.77)"/><path class="cls-11" d="M154.38,237.29h4.86c-.39,11.09,2.69,17.59,14.95,17.06a6.79,6.79,0,0,1-1.76,4.47c-5.25.11-11.52-2-16.6-5.58Z" transform="translate(-1.67 -16.77)"/><polygon class="cls-12" points="146.28 157.38 156.71 156 164.85 220.52 153.82 220.52 146.28 157.38"/><polygon class="cls-9" points="159.38 220.52 152.01 156.74 146.28 157.38 153.82 220.52 159.38 220.52"/><polygon class="cls-13" points="142.08 137.42 156.06 135.98 158.22 156 144.11 157.51 142.08 137.42"/><path class="cls-14" d="M146.83,153.88c-.46,12,2.91,18.84,12.87,17l.2,1.85-14.11,1.51-2-20.09Z" transform="translate(-1.67 -16.77)"/><path class="cls-15" d="M57.49,123.2l14.41.71C72.69,94.24,54.42,84.16,27.12,81c-12.61,0-11.82-18.71-8-33A23.85,23.85,0,0,1,39.63,32.2c26.65-2.37,47.62-.06,58,11,22.71,19.83,38.46,65.55,46.14,111l14-1.44c-4.6-26.63-7.27-51.27-36.1-102.85C100.76,20.76,84.15,16.91,61,16.82,28.05,16,6.13,25.28,2.7,51.47c-4.84,35.45,8.22,42.47,23.37,44.64,4.14.59,8.9.58,12.83,2C54.7,103.93,57.14,107,57.49,123.2Z" transform="translate(-1.67 -16.77)"/><path class="cls-16" d="M60.45,130.22V144c-2.79-.25-5.44.79-7.6,0V133.49C54.41,131.62,57.26,130.69,60.45,130.22Z" transform="translate(-1.67 -16.77)"/><path class="cls-17" d="M54.14,132.35c0-5.11-.19-6.69,1.28-8.06A8.59,8.59,0,0,1,61,122.13c4.14-.16,9.24.27,11.32,2.07.77.87,1.21,3.62,1,7.87C67.72,129.35,61.43,129.25,54.14,132.35Z" transform="translate(-1.67 -16.77)"/><path class="cls-18" d="M44.05,223.57c5.05-5.24,11.85-5.9,20.22-2.49,15.62,3.93,28.73,3.74,39.12-.92l11.81-8c5.5,38,1.9,54.63-5.36,62.71a20.26,20.26,0,0,1-12.4,6.28A224.46,224.46,0,0,1,68.2,283C46.15,279.36,44.71,253.76,44.05,223.57Z" transform="translate(-1.67 -16.77)"/><path class="cls-19" d="M82.25,282.6C57.57,281.46,54.3,247.94,55.34,219a14.43,14.43,0,0,0-11.29,4.59C44.08,273,55.42,280.69,68.2,283Z" transform="translate(-1.67 -16.77)"/><path class="cls-20" d="M68.2,139.49c-13,2.17-14.7,23-12.86,79.49-4.68-.22-8.25,1.69-11.29,4.59C46.61,193.34,35.88,145.45,68.2,139.49Z" transform="translate(-1.67 -16.77)"/><path class="cls-21" d="M64.22,224.63c-1.06-5,6.36-5.49,7.19.43,1.74,12,4.35,20.12,9.55,25.94,6.68,5.32,15.6,5.45,21.67-4.2a52.7,52.7,0,0,0,.76-25.89,2.19,2.19,0,0,1,3.87-1.95c3.67,14,3.88,24.14,1.08,30.8-2.81,6.93-7.16,11.55-14,12.45a23.07,23.07,0,0,1-21.48-9.56C69.35,247.76,65.92,239.61,64.22,224.63Z" transform="translate(-1.67 -16.77)"/><path class="cls-22" d="M64.11,260.85c0-4.79,5.87-6,9.21-2.3,4.52,5.52,8.47,13.92,5,15.56-4,2.48-8.53.52-10.37-3.22C66.21,267.6,64.56,264.29,64.11,260.85Z" transform="translate(-1.67 -16.77)"/><path class="cls-23" d="M64.11,260.85c.12-1.87.69-2.74,1.27-3.21,3.68,12.66,5.77,16.7,11.94,17-3,1-5.62.66-7.78-1.52A30.09,30.09,0,0,1,64.11,260.85Z" transform="translate(-1.67 -16.77)"/><path class="cls-22" d="M99.18,268.66c-1.38,3.11-.22,5.65,4.86,5.18a7.78,7.78,0,0,0,4.51-1.95c2.67-2.46,4.63-6.46,5.8-12.15.31-3.74-3.51-5.12-6.56-4.13a4.88,4.88,0,0,0-2.67,2.31Z" transform="translate(-1.67 -16.77)"/><path class="cls-23" d="M99.18,272.58c8.44,1.2,12.61-4.8,13.85-16.21,3.76,2-2.1,15.57-6.53,16.83C102.78,274.42,100.57,274,99.18,272.58Z" transform="translate(-1.67 -16.77)"/><ellipse class="cls-24" cx="20.08" cy="241.46" rx="6.15" ry="8.76"/><ellipse class="cls-25" cx="19.09" cy="241.42" rx="5.17" ry="8.73"/><path class="cls-26" d="M25.34,237.45c14.77,7.19,13.79,36.07-.78,41.25,7.68,1.31,14.31-.21,17.6-10.24a32.43,32.43,0,0,0,.3-18.19C38.74,236,32.89,237.13,25.34,237.45Z" transform="translate(-1.67 -16.77)"/></svg>