<svg id="Camada_1" data-name="Camada 1" xmlns="http://www.w3.org/2000/svg" viewBox="0 0 192.15 171.94"><defs><style>.cls-1{fill:#443894;}.cls-2{fill:#e5e9eb;}.cls-3{fill:#401f7f;}.cls-4{fill:#d8dfb5;}.cls-5{fill:#fff;}.cls-6{fill:#eed684;}</style></defs><title>pagamento</title><path class="cls-1" d="M63.1,14.93c7.2-2.63,11.75.93,15,5.05l68.54,127.83c2.1,5.55,2.36,8.67-2,10.93L90.29,183.09c-9.17,4.86-16.22,4-21.15-5.83L5.36,48.18c-2.44-4.93-2.3-13.67,4.74-16.53Z" transform="translate(-3.93 -14.03)"/><path class="cls-2" d="M60.31,18.46C67,16,71.63,17.06,74.63,21L142.3,144.37c2,5.25.82,8.89-3.2,11L90.89,175.78c-8.54,4.59-12.49,3.76-17.08-5.51L9.89,44.63C7.61,40,8.56,36,15.12,33.34Z" transform="translate(-3.93 -14.03)"/><path class="cls-1" d="M67.59,61c-1.62-6.17-2.4-8.29,6.64-10.16l97.85-26.42c3.19-1.14,5.77-1,6.88,2.28l16.74,62c.91,2.48.22,5.22-3,6L90.27,122.44c-3.6.76-5.81,1.49-7.24-4.47Z" transform="translate(-3.93 -14.03)"/><ellipse class="cls-3" cx="177.58" cy="67.17" rx="7.32" ry="7.59"/><ellipse class="cls-4" cx="168.77" cy="69.69" rx="7.32" ry="7.59"/><rect class="cls-5" x="77.4" y="53.76" width="14.57" height="11.66" rx="1.95" transform="translate(-16.2 9.2) rotate(-14.58)"/><rect class="cls-6" x="85.2" y="82.92" width="17.26" height="5.54" transform="translate(-22.47 12.34) rotate(-14.58)"/><rect class="cls-6" x="107.19" y="76.99" width="17.26" height="5.54" transform="translate(-20.27 17.69) rotate(-14.58)"/><rect class="cls-6" x="129.38" y="70.83" width="17.26" height="5.54" transform="translate(-18.01 23.07) rotate(-14.58)"/><rect class="cls-6" x="151.65" y="65.04" width="17.26" height="5.54" transform="translate(-15.83 28.49) rotate(-14.58)"/></svg>