<svg id="Camada_1" data-name="Camada 1" xmlns="http://www.w3.org/2000/svg" viewBox="0 0 194.67 177.73"><defs><style>.cls-1{fill:#616566;}.cls-2{fill:#443894;}.cls-3{fill:#e5e9eb;}.cls-4{fill:#401f7f;}.cls-5{fill:#d8dfb5;}.cls-6{fill:#fff;}.cls-7{fill:#eed684;}</style></defs><title>pagamento2</title><path class="cls-1" d="M54,27.81c6.7-2.48,11.33-1.4,14.33,2.5L136,153.72c2,5.25.83,8.89-3.19,11L84.59,185.13c-8.54,4.59-12.49,3.77-17.08-5.51L3.59,54c-2.27-4.66-1.32-8.6,5.24-11.3Z" transform="translate(-2.48 -10.13)"/><path class="cls-2" d="M64.17,11c7.2-2.63,11.75.93,15,5L147.68,143.9c2.1,5.56,2.36,8.68-2,10.93L91.36,179.19c-9.17,4.86-16.22,4-21.15-5.84L6.43,44.27C4,39.35,4.13,30.61,11.17,27.75Z" transform="translate(-2.48 -10.13)"/><path class="cls-3" d="M61.38,14.55c6.7-2.48,11.32-1.39,14.32,2.5l67.67,123.42c2,5.25.82,8.88-3.2,11L92,171.87c-8.54,4.6-12.49,3.77-17.08-5.51L11,40.73c-2.28-4.65-1.33-8.6,5.23-11.3Z" transform="translate(-2.48 -10.13)"/><path class="cls-2" d="M68.66,57.07C67,50.9,66.26,48.78,75.3,46.9l97.85-26.41c3.19-1.14,5.77-1,6.88,2.28l16.74,62c.91,2.48.22,5.22-3,6L91.34,118.54c-3.6.75-5.81,1.49-7.24-4.47Z" transform="translate(-2.48 -10.13)"/><ellipse class="cls-4" cx="180.1" cy="67.17" rx="7.32" ry="7.59"/><ellipse class="cls-5" cx="171.29" cy="69.69" rx="7.32" ry="7.59"/><rect class="cls-6" x="78.47" y="49.86" width="14.57" height="11.66" rx="1.95" transform="translate(-13.73 13.25) rotate(-14.58)"/><rect class="cls-7" x="86.27" y="79.01" width="17.26" height="5.54" transform="translate(-20.01 16.39) rotate(-14.58)"/><rect class="cls-7" x="108.26" y="73.09" width="17.26" height="5.54" transform="translate(-17.81 21.73) rotate(-14.58)"/><rect class="cls-7" x="130.45" y="66.93" width="17.26" height="5.54" transform="translate(-15.54 27.12) rotate(-14.58)"/><rect class="cls-7" x="152.72" y="61.14" width="17.26" height="5.54" transform="translate(-13.37 32.54) rotate(-14.58)"/></svg>