<svg id="Camada_1" data-name="Camada 1" xmlns="http://www.w3.org/2000/svg" viewBox="0 0 388.35 347.51"><defs><style>.cls-1{fill:#443894;}.cls-2{fill:#e5e9eb;}.cls-3{fill:#401f7f;}.cls-4{fill:#d8dfb5;}.cls-5{fill:#fff;}.cls-6{fill:#eed684;}</style></defs><title>pagamento2</title><path class="cls-1" d="M219.9,13.06c14.54-5.31,23.74,1.89,30.25,10.21L388.68,281.63c4.25,11.22,4.76,17.52-4,22.09L274.84,353c-18.53,9.81-32.77,8-42.74-11.81L103.19,80.25c-4.94-9.94-4.65-27.62,9.59-33.39Z" transform="translate(-100.3 -11.24)"/><path class="cls-2" d="M214.25,20.19c13.54-5,22.89-2.82,28.95,5L380,274.68c4,10.61,1.67,18-6.45,22.27l-97.45,41.21c-17.26,9.28-25.25,7.61-34.53-11.14L112.34,73.09c-4.59-9.4-2.68-17.37,10.58-22.83Z" transform="translate(-100.3 -11.24)"/><path class="cls-1" d="M229,106.12c-3.27-12.47-4.85-16.76,13.42-20.55L440.16,32.18c6.44-2.3,11.65-2,13.9,4.61L487.9,162.16c1.84,5,.44,10.56-6.14,12.16l-207,56c-7.27,1.54-11.74,3-14.62-9Z" transform="translate(-100.3 -11.24)"/><ellipse class="cls-3" cx="358.91" cy="135.75" rx="14.8" ry="15.34"/><ellipse class="cls-4" cx="341.12" cy="140.86" rx="14.8" ry="15.34"/><rect class="cls-5" x="248.79" y="91.55" width="29.44" height="23.57" rx="1.95" transform="translate(-117.82 58.4) rotate(-14.58)"/><rect class="cls-6" x="264.55" y="150.47" width="34.88" height="11.2" transform="translate(-130.5 64.75) rotate(-14.58)"/><rect class="cls-6" x="309.01" y="138.5" width="34.88" height="11.2" transform="translate(-126.05 75.56) rotate(-14.58)"/><rect class="cls-6" x="353.85" y="126.05" width="34.88" height="11.2" transform="translate(-121.48 86.44) rotate(-14.58)"/><rect class="cls-6" x="398.86" y="114.34" width="34.88" height="11.2" transform="translate(-117.08 97.39) rotate(-14.58)"/></svg>