<svg id="Camada_1" data-name="Camada 1" xmlns="http://www.w3.org/2000/svg" xmlns:xlink="http://www.w3.org/1999/xlink" viewBox="0 0 545.24 351.81"><defs><style>.cls-1{fill:none;stroke:#5f2d17;stroke-miterlimit:10;}.cls-2{fill:#362f36;}.cls-3{fill:#9d9d9d;}.cls-4{fill:#62398b;}.cls-5{fill:#edecec;}.cls-6{fill:#2075ab;}.cls-7{fill:#c7c7c5;}.cls-8{fill:#b3b3b3;}.cls-9{fill:#ccc;}.cls-10{fill:#a4212d;}.cls-11{fill:#c12937;}.cls-12{fill:#ececec;}.cls-13{fill:#d0d0cf;}.cls-14{fill:url(#Gradiente_sem_nome_265);}.cls-15{fill:#f18b30;}.cls-16{fill:#362e34;}.cls-17{fill:#565655;}.cls-18{fill:#393838;}.cls-19{fill:#484848;}.cls-20{fill:#3a3a3a;}.cls-21{fill:#3e353d;}.cls-22{fill:#c6c5c4;}.cls-23{fill:#3f363e;}.cls-24{fill:#362e36;}.cls-25{fill:#382f37;}.cls-26{fill:#2b272d;}.cls-27{fill:#3d373d;}.cls-28{fill:#443d45;}.cls-29{fill:#3c333b;}.cls-30{fill:#362f34;}.cls-31{fill:#2b2429;}.cls-32{fill:#a8a7a8;}.cls-33{fill:#34a660;}.cls-34{fill:#228f42;}.cls-35{fill:#aaaaab;}.cls-36{fill:#1b683d;}.cls-37{fill:#218c52;}.cls-38{fill:#136e37;}.cls-39{fill:#747274;}.cls-40{fill:#908e90;}.cls-41{fill:#373737;}</style><linearGradient id="Gradiente_sem_nome_265" x1="210.3" y1="142.36" x2="320.13" y2="142.36" gradientUnits="userSpaceOnUse"><stop offset="0.1" stop-color="#dbdbda"/><stop offset="0.15" stop-color="#e7e7e6"/><stop offset="0.23" stop-color="#f4f4f4"/><stop offset="0.33" stop-color="#fdfdfc"/><stop offset="0.51" stop-color="#fff"/><stop offset="0.67" stop-color="#fdfdfc"/><stop offset="0.77" stop-color="#f4f4f4"/><stop offset="0.85" stop-color="#e7e7e6"/><stop offset="0.9" stop-color="#dbdbda"/></linearGradient></defs><title>serviços</title><path class="cls-1" d="M466.88,167.36" transform="translate(-28.37 -11.72)"/><path class="cls-2" d="M491,363.27h-.52c-5.55-.34-8.55-1.25-10.07-3.06a4.86,4.86,0,0,1-1-3.83c.2-3.22,3.33-5.23,8.37-5.34,3.8,0,8.95,1.23,13.91,2.48,2.52.25,3.88-.62,4.06-1.59.21-1.14-1.11-2.77-3.95-3.54a37.4,37.4,0,0,0-13.46-1.65c-6.9.51-15.09,1.45-24.32,2.8-7.7,1.39-14.49,2.34-20.73,2.9-7.58,1.18-13.38.17-15.85-2.77a4.67,4.67,0,0,1-.89-4.68,5.91,5.91,0,0,1,3.65-3.54c3.62-1.36,8.36-1.66,14.05-.89,1.86.17,4,.41,6.24.69a162.48,162.48,0,0,0,18.15,1.41c4.55-.16,6-1.05,6.47-1.57a1.09,1.09,0,0,0,.3-.89c-.29-2.71-4-4.74-9.4-5.15a78.15,78.15,0,0,0-11.14.44,64.61,64.61,0,0,1-11.77.31c-4.9-.2-7.48-3.05-7.63-8.46l1.89,0c.12,4.42,1.93,6.47,5.87,6.63a62.31,62.31,0,0,0,11.47-.31,80.25,80.25,0,0,1,11.43-.44c6.5.49,10.76,3.11,11.15,6.85a3,3,0,0,1-.76,2.32c-1.19,1.34-3.76,2.06-7.85,2.2a160.54,160.54,0,0,1-18.4-1.42c-2.26-.27-4.34-.52-6.22-.68-5.44-.74-9.86-.48-13.19.77a4.05,4.05,0,0,0-2.53,2.38,2.8,2.8,0,0,0,.55,2.86c2,2.39,7.31,3.19,14.18,2.12,6.24-.56,13-1.5,20.66-2.89,9.3-1.36,17.54-2.31,24.52-2.83a39.56,39.56,0,0,1,14.1,1.74c4.11,1.1,5.62,3.72,5.26,5.68-.31,1.69-2.14,3.52-6.24,3.1-5-1.25-10-2.45-13.56-2.44-3.93.08-6.38,1.43-6.52,3.61a3.11,3.11,0,0,0,.6,2.46c1.13,1.34,3.89,2.1,8.7,2.39a41.29,41.29,0,0,0,12.64-1.58c7.55-2.27,14.69-4.61,21.24-6.95,4.54-1.52,9-2.78,13.49-3.86a19.89,19.89,0,0,1,6.56-.35l-.31,1.85a18.54,18.54,0,0,0-5.86.35c-4.44,1-8.79,2.29-13.27,3.79-6.55,2.35-13.73,4.7-21.3,7A43.66,43.66,0,0,1,491,363.27Z" transform="translate(-28.37 -11.72)"/><path class="cls-3" d="M433.93,321.14V327a4.42,4.42,0,0,0,5.05,0v-6.47c-2.37-3.22-4.25-3.68-5.28.77" transform="translate(-28.37 -11.72)"/><path class="cls-4" d="M433.69,321.24a10.91,10.91,0,0,1,6.1-.68,4.69,4.69,0,0,0,4.5-4.25c2.77-12.26,3.89-26.38,3.87-41.8a141.37,141.37,0,0,0-4.68-33.92c-4.93-13.88-10.86-25.69-17.92-35.17a111.45,111.45,0,0,0-8.8-11.6,65.13,65.13,0,0,0-17.95-14.25c-10-5.44-21.07-10.5-27.45-10.84-1.33-.15-2.14,1.19-2.37,4.16l.07,116.34a30.36,30.36,0,0,0,3,10.59,67.73,67.73,0,0,1,7.14,21.45c.58,5.79,1.26,10,2.05,12.24a2.06,2.06,0,0,0,2,1.38,112.24,112.24,0,0,0,28.16-4.23C421,328,425.34,325.32,433.69,321.24Z" transform="translate(-28.37 -11.72)"/><path class="cls-5" d="M380.29,170.9c-1.29,9.74,2.17,17.94,8.13,24.7,3.35,3.69,8.19,7.27,14,10.76,7.82,4.44,15.26,11.31,22.48,19.49A74.3,74.3,0,0,1,437.55,250c3.18,12,3.57,23.18,3.16,34.08-.49,8.88-3.28,15.87-7.79,21.46-5,5-9.75,8.23-18.23,11.46-8.05,2.46-12.74,7.05-12.07,15.76l-16.07,2a168.54,168.54,0,0,0-2.39-28.25l-6-34.84A380.09,380.09,0,0,1,375,232l-.79-39.77c0-8.58.48-16.38,1.74-22.7C377.42,170,378.93,170.35,380.29,170.9Z" transform="translate(-28.37 -11.72)"/><path class="cls-6" d="M418.19,257.45c-.43-2.58-.91-4.86-1.36-7a10.73,10.73,0,0,1,3.55-9.08,8.22,8.22,0,0,1,9.78-.63,10.71,10.71,0,0,1,4.5,6.47A101.89,101.89,0,0,1,437,262c1.2,9.8.46,20.4-1.45,31.49-.78,5.08-2.26,9.75-8,11.62-4.19.79-8.38-1.4-10.21-6.44a11.9,11.9,0,0,1,0-7.15c.35-1.79.69-3.62,1-5.54Z" transform="translate(-28.37 -11.72)"/><polygon class="cls-7" points="340.62 161.17 337.14 161.17 337.13 276.74 340.69 276.74 340.62 161.17"/><path class="cls-8" d="M365.51,172.89c0-1.49-.28-3.25-1.58-3.36-1.37.09-1.88,1.33-1.81,3.36V289.68c.16,1.45.82,2,1.41,2.19,1.08.2,2-.8,2-2.09Z" transform="translate(-28.37 -11.72)"/><path class="cls-9" d="M416.82,195.1c-2.36.79-1.87,4.6-1.18,6.62,1,2.64,2.56,4.27,4,4.8a1,1,0,0,0,1.27-1.16l-2.83-8.79C417.9,195.41,417.71,194.94,416.82,195.1Z" transform="translate(-28.37 -11.72)"/><path class="cls-10" d="M428.53,210.25c-2.22.55-3.09,2.48-2.41,6,.62,3.21,2.81,6.05,6.07,8.94l6.47-.46c1-1,.9-4.12.48-5.79-1-3.08-3.13-7.26-4.95-8.68Z" transform="translate(-28.37 -11.72)"/><path class="cls-11" d="M434.19,210.24h-.74c-2.12,1.3-2.14,3.5-1.38,6,1.66,4.22,5,8.71,6.59,8.45.82-1.09,1-3,.48-5.79A21.57,21.57,0,0,0,434.19,210.24Z" transform="translate(-28.37 -11.72)"/><ellipse class="cls-12" cx="392.67" cy="260.03" rx="4.23" ry="14.22"/><path class="cls-13" d="M420.3,257.54h-3.73c-6.37,5.61-4.36,26.83.24,28.43h3.5C415.52,280.38,415.25,263.34,420.3,257.54Z" transform="translate(-28.37 -11.72)"/><polygon class="cls-8" points="392.66 248.7 393.21 247.97 394.46 247.96 394.06 248.7 392.66 248.7"/><polygon class="cls-13" points="392.67 261.25 392.66 248.7 394.06 248.7 398.25 261.25 392.67 261.25"/><polygon class="cls-8" points="398.74 260.47 398.25 261.25 394.1 248.8 394.46 247.96 398.74 260.47"/><path class="cls-2" d="M543.69,352.2l1-5,3.41.72a7.54,7.54,0,0,1,5.26-3.73,8,8,0,0,1,3.26.21l9.6,2-.67,3.14,6.55,1.42a2,2,0,0,1,1.53,2.2,1.76,1.76,0,0,1-2.1,1.19L564.84,353l-.61,3.15,6.21,1.29c1.25.34,1.9,1,1.85,2.19a1.85,1.85,0,0,1-2.19,1.25l-6.61-1.33-.34,1.88-9.58-1.92a7.55,7.55,0,0,1-3.69-1.52,7.23,7.23,0,0,1-2.8-5.14Z" transform="translate(-28.37 -11.72)"/><path class="cls-14" d="M210.39,100.49c-.89,50.76,5.06,72.16,13.93,81,4.36,5.67,62,8.5,81.2,0,13.08-17,12.43-40.49,14.61-83.68C282.82,101.83,246.28,104.26,210.39,100.49Z" transform="translate(-28.37 -11.72)"/><path class="cls-15" d="M225.62,142.34l34.65,27.29L338,70.76c2.59-3,9.51-3.23,8.26,9.45-1.89,11.27-10.05,16.37-17,16.94l-2.16-1.93C336.74,92.59,341.24,87,342.25,80c1.49-9.15-.55-7.45-3.12-4l-75.91,96.54c-6,8-15.18,9.91-24.12,6.46-8.78-3-17.44-11.33-18.24-23.14A20.63,20.63,0,0,1,225.62,142.34Z" transform="translate(-28.37 -11.72)"/><path class="cls-15" d="M207.27,120.36l.4,12.41c-11-3.37-19.5-7.84-21.24-10.65-.52-.74-.09-5.64,3-6.23C192.52,115.55,198.16,117.84,207.27,120.36Z" transform="translate(-28.37 -11.72)"/><path class="cls-15" d="M322,120.36l-.4,12.41c11-3.37,19.51-7.84,21.24-10.65.52-.74.09-5.64-3-6.23C336.72,115.55,331.09,117.84,322,120.36Z" transform="translate(-28.37 -11.72)"/><path class="cls-15" d="M208,95.68c.15-.94.34-1.45,2.25-1.49,2.43.18,5.76-.5,10.23-2.29L232,86.63a64.38,64.38,0,0,1,17.33-5c.42-4.86,1.78-9.21,4.63-12.74,3.18-3.58,6.68-5.27,10.49-5.35,4.7.36,8.33,2.68,11.29,6.2a18.71,18.71,0,0,1,4.12,8.36,88.3,88.3,0,0,1,15.67,1.11c4.15.44,9.68,2.09,15.25,3.22a34.19,34.19,0,0,0,11.68.3c1.46.08,2,2-.21,2.64-3,4.71-109.14,15-113,11.93A1.47,1.47,0,0,1,208,95.68Z" transform="translate(-28.37 -11.72)"/><path class="cls-6" d="M256.25,80.49c.17-8.13,2.89-12.31,8-12.79,5-.19,7.48,4.42,9.13,11.09A140.25,140.25,0,0,0,256.25,80.49Z" transform="translate(-28.37 -11.72)"/><path class="cls-15" d="M323.77,16.31c-12.39,7.31-19.27,20.13-4.41,27.52,8.33,3.53,9.77,6.88,6.89,11-5.57,8.07-7.35,10.41-2.48,16.05-1.51-7.31,1.46-8.4,4.85-12.31,4.84-3.79,6.79-8.27,2.89-14.19-2.16-2.49-5.82-4.63-10.19-6.62C314.31,33,316.83,25.61,323.77,16.31Z" transform="translate(-28.37 -11.72)"/><path class="cls-15" d="M346.08,44.5c-7.5-4.32-11.72-12-2.81-16.52,5-2.17,5.84-4.19,4.08-6.62-3.4-4.82-4.49-6.22-1.59-9.64-.86,4.41.93,5,3,7.38,2.94,2.24,4.14,4.93,1.82,8.5a18.2,18.2,0,0,1-6.1,4C340.29,34.52,341.85,39,346.08,44.5Z" transform="translate(-28.37 -11.72)"/><path class="cls-16" d="M97.11,215c-45.51,9.76-42,37.77-51,101-1.2,31.53,16.55,49.57,51,47.27-5.74-2.17-25.53.95-25-61.44C75.54,261.88,63.07,221.86,97.11,215Z" transform="translate(-28.37 -11.72)"/><ellipse class="cls-17" cx="22.22" cy="325.82" rx="13.02" ry="21.31"/><ellipse class="cls-18" cx="22.15" cy="325.83" rx="9.56" ry="16.41"/><ellipse class="cls-19" cx="24.35" cy="325.8" rx="7.36" ry="15.5"/><ellipse class="cls-20" cx="21.4" cy="325.93" rx="7.02" ry="10.28"/><path class="cls-21" d="M81.24,219.68V208.93c3.59-4.45,19.8-5.34,22.65,0v6.64Q94.74,224.06,81.24,219.68Z" transform="translate(-28.37 -11.72)"/><path class="cls-22" d="M72.15,301.89c31,20.13,57.49,23.74,73.52-11.8-8.55-43.54-19-64.79-41.78-74.46C79.18,209.74,74.3,246.74,72.15,301.89Z" transform="translate(-28.37 -11.72)"/><path class="cls-23" d="M172.52,359.57a3.43,3.43,0,0,0,2.68,2.49c11.72,2,17.42,1.48,20-.36l32.28-21.43c3.66-2,4.57-5.34.77-11.15a11.24,11.24,0,0,0-9.95-5c-18.06,1-32.72,8.33-43.51,23a14.41,14.41,0,0,0-2.27,12.34Z" transform="translate(-28.37 -11.72)"/><path class="cls-24" d="M172.45,353.63c3,2.64,16.48,4.61,21.84,1.15l35.59-22.63c1.71,3.67.7,6.3-2.43,8.12l-33.17,22c-1.52,1.32-4.87,2.1-20.33-.67C172.23,359.18,171.41,356.61,172.45,353.63Z" transform="translate(-28.37 -11.72)"/><path class="cls-25" d="M187.64,332.54c2,2.24,13.68,6.65,17.16,5.76,3.66-4,1.56-11.06-4.34-12.34l-.75-9.9H186.15Z" transform="translate(-28.37 -11.72)"/><path class="cls-26" d="M186.15,316.06h5c-.41,11.46,2.78,18.17,15.44,17.63a7,7,0,0,1-1.81,4.61c-5.43.12-11.9-2.08-17.16-5.76Z" transform="translate(-28.37 -11.72)"/><polygon class="cls-27" points="151.14 239.1 161.92 237.68 170.33 304.34 158.93 304.34 151.14 239.1"/><polygon class="cls-24" points="164.67 304.34 157.06 238.44 151.14 239.1 158.93 304.34 164.67 304.34"/><polygon class="cls-28" points="146.79 218.49 161.24 216.99 163.48 237.68 148.9 239.24 146.79 218.49"/><path class="cls-29" d="M178.35,229.88c-.48,12.35,3,19.47,13.29,17.6l.21,1.92L177.27,251l-2.11-20.75Z" transform="translate(-28.37 -11.72)"/><path class="cls-30" d="M86,198.18l14.88.74c.82-30.65-18-41.07-46.26-44.33-13,0-12.21-19.33-8.28-34.12a24.66,24.66,0,0,1,21.21-16.3c27.53-2.46,49.19-.07,59.9,11.36C151,136,167.23,183.26,175.16,230.21l14.45-1.5c-4.76-27.51-7.52-53-37.3-106.26-21.56-30.11-38.72-34.09-62.66-34.18-34-.84-56.67,8.74-60.22,35.8-5,36.62,8.49,43.89,24.14,46.12,4.28.61,9.2.6,13.27,2.09C83.16,178.27,85.68,181.43,86,198.18Z" transform="translate(-28.37 -11.72)"/><path class="cls-31" d="M89.1,205.44v14.25c-2.88-.25-5.62.82-7.86,0V208.81C82.85,206.88,85.8,205.92,89.1,205.44Z" transform="translate(-28.37 -11.72)"/><path class="cls-32" d="M82.58,207.63c0-5.27-.2-6.91,1.32-8.32a8.85,8.85,0,0,1,5.71-2.23c4.28-.17,9.55.28,11.7,2.13.8.9,1.25,3.75,1.09,8.14C96.61,204.54,90.11,204.43,82.58,207.63Z" transform="translate(-28.37 -11.72)"/><path class="cls-33" d="M72.15,301.89c5.22-5.41,12.25-6.1,20.89-2.58,16.14,4.06,29.69,3.87,40.42-.95l12.21-8.27c5.68,39.23,2,56.44-5.55,64.79a20.94,20.94,0,0,1-12.81,6.49,231.84,231.84,0,0,1-30.2,2C74.32,359.53,72.83,333.08,72.15,301.89Z" transform="translate(-28.37 -11.72)"/><path class="cls-34" d="M111.62,362.88c-25.5-1.18-28.88-35.81-27.8-65.73a14.91,14.91,0,0,0-11.67,4.74c0,51.07,11.75,59,25,61.44Z" transform="translate(-28.37 -11.72)"/><path class="cls-35" d="M97.11,215c-13.43,2.23-15.19,23.8-13.29,82.13-4.84-.23-8.52,1.74-11.67,4.74C74.8,270.66,63.71,221.17,97.11,215Z" transform="translate(-28.37 -11.72)"/><path class="cls-36" d="M93,303c-1.09-5.18,6.57-5.67,7.43.45,1.8,12.43,4.5,20.78,9.87,26.8,6.9,5.49,16.12,5.63,22.39-4.34a54.48,54.48,0,0,0,.78-26.75,2.26,2.26,0,0,1,4-2c3.79,14.51,4,24.94,1.12,31.82-2.9,7.15-7.4,11.93-14.47,12.86a23.85,23.85,0,0,1-22.19-9.87C98.29,326.88,94.75,318.46,93,303Z" transform="translate(-28.37 -11.72)"/><path class="cls-37" d="M92.88,340.41c0-5,6.06-6.24,9.52-2.38,4.66,5.71,8.75,14.38,5.15,16.07-4.14,2.57-8.81.55-10.71-3.32C95.05,347.38,93.34,344,92.88,340.41Z" transform="translate(-28.37 -11.72)"/><path class="cls-38" d="M92.88,340.41c.13-1.93.71-2.84,1.31-3.33,3.8,13.09,6,17.27,12.34,17.56-3.08,1-5.81.67-8-1.58A30.93,30.93,0,0,1,92.88,340.41Z" transform="translate(-28.37 -11.72)"/><path class="cls-37" d="M129.12,348.48c-1.43,3.21-.24,5.83,5,5.34a8,8,0,0,0,4.66-2c2.77-2.55,4.79-6.69,6-12.57.33-3.86-3.62-5.28-6.77-4.26a5,5,0,0,0-2.76,2.39Z" transform="translate(-28.37 -11.72)"/><path class="cls-38" d="M129.11,352.53c8.73,1.24,13-5,14.31-16.76,3.89,2.11-2.16,16.1-6.74,17.4C132.84,354.43,130.55,353.94,129.11,352.53Z" transform="translate(-28.37 -11.72)"/><ellipse class="cls-39" cx="20.74" cy="325.97" rx="6.36" ry="9.05"/><ellipse class="cls-40" cx="19.73" cy="325.93" rx="5.34" ry="9.02"/><path class="cls-41" d="M52.83,316.23c15.25,7.43,14.24,37.26-.82,42.62,7.94,1.35,14.79-.22,18.19-10.59a33.42,33.42,0,0,0,.3-18.78C66.67,314.73,60.63,315.9,52.83,316.23Z" transform="translate(-28.37 -11.72)"/></svg>